<?xml version="1.0" encoding="utf-8"?>
<!-- Generator: Adobe Illustrator 17.1.0, SVG Export Plug-In . SVG Version: 6.00 Build 0)  -->
<!DOCTYPE svg PUBLIC "-//W3C//DTD SVG 1.1//EN" "http://www.w3.org/Graphics/SVG/1.1/DTD/svg11.dtd">
<svg version="1.1" id="Layer_1" xmlns="http://www.w3.org/2000/svg" xmlns:xlink="http://www.w3.org/1999/xlink" x="0px" y="0px"
	 viewBox="0 0 960 293" enable-background="new 0 0 960 293" xml:space="preserve">
<g>
	<g>
		<path fill-rule="evenodd" clip-rule="evenodd" fill="#4F8FFD" d="M830.4,182.5l34.8,0.1c1.7-0.4,1.6-1.2,2.6-4.6l5.2-17.5
			c2.3-8.1,4-16,5.9-24.7c1.8-8.3,3.3-16.5,4.6-25.1c1-6.5,1.9-22.5,3.8-26.8c4.4-1.5,18.8-0.7,24.6-0.3c1.7,19.3-1.7,89.6,0.6,99
			l34,0.1c0.7-2.8,1.1-125.3,0.1-131.6l-91-0.2c-1.2,5.3-0.9,12.3-1.4,17.8c-3.8,38.4-9.2,61.6-19.4,98.3
			C833.6,171.5,830.9,178.3,830.4,182.5L830.4,182.5z M390.3,182.7l33.6,0.1c1.3-5,0.4-30.3,0.4-37.4c22.2-2.6,44.9,5.4,60.7-7.7
			c11.8-9.8,16.2-34.4,12.2-55.3c-4.2-21.9-14.4-30.1-38.8-30.1c-11.2,0-61.6-0.6-68.1,0.2L390.3,182.7L390.3,182.7z M424.3,116
			c8.1,0.5,17.9,0.2,25.8,0.1c8.9-0.2,10.7-6.8,10.8-16.1c0.1-9.4-1.2-16.5-10.1-16.8c-7.9-0.2-18.5-0.4-26.2,0.1L424.3,116
			L424.3,116z M541.7,182.6l95.7,0.1c0.8-3.1,0.8-26.4,0.1-29.9l-61.3,0l-0.1-20.3l44.4-0.1l0.1-30.7l-44.4-0.4l-0.1-16.5h61.5
			l0.2-31.6l-95.9-0.1L541.7,182.6L541.7,182.6z M667,182.6l36.7,0l6.2-24l48.4-0.1l8.5,24l37.7,0.1l-22.1-64.3L762,52.6l-51.7-0.2
			C706.4,57.5,667.5,172.5,667,182.6L667,182.6z M718.9,127.4l29.4,0.1l-12.2-43.1l-4.2-0.2C730.2,87.7,719.1,124.1,718.9,127.4
			L718.9,127.4z"/>
	</g>
	<g>
		<g>
			<path fill="#FF941F" d="M429.8,253.1c-5.9,2.2-14.4,3.5-20.8,3.5c-14.5,0-18.7-3.2-18.7-14.8c0-12.6,6.7-14.6,17.1-14.6
				c3.2,0,6.6,0.5,9.9,1.1c0-6.2-1.4-7.7-9.9-7.7c-5.1,0-9.9,0.7-13.6,1.8l-2.1-10.7c5-1.3,12.3-2.3,18.8-2.3
				c13.1,0,19.2,4.1,19.2,17.4V253.1z M417.3,237c-2-0.5-4.5-0.6-7.1-0.6c-4.7,0-6.4,0.5-6.4,5c0,4.6,1.1,5.3,6.2,5.3
				c2.5,0,5.2-0.4,7.3-1.2V237z"/>
			<path fill="#FF941F" d="M494.9,243.4c0,9-5,12-13.2,12h-28.2v-44.7h27.9c10,0,12.6,3.8,12.6,10.7c0,6.3-1.8,9.8-10.5,10.4
				C492.8,232.3,494.9,236.4,494.9,243.4z M466.7,227.9h10.5c2.2,0,3.2-1,3.2-3.6c0-2.8-1-3.6-3.2-3.6h-10.5V227.9z M477.7,245.5
				c2.4,0,3.6-0.8,3.6-3.9c0-3.3-1.4-4.3-3.9-4.3h-10.6v8.3H477.7z"/>
			<path fill="#FF941F" d="M540.9,255.4h-13.1v-33.2h-14.1v-11.5H555v11.5h-14V255.4z"/>
			<path fill="#FF941F" d="M573.1,232.8c0-18.2,7.3-23.3,21.2-23.3c14.2,0,21.4,5.1,21.4,23.3c0,18.3-7.1,23.8-21.4,23.8
				C580.3,256.7,573.1,251.2,573.1,232.8z M586.4,233.1c0,11.3,1.8,13.1,8,13.1c6.3,0,8-1.8,8-13.1c0-11.7-1.8-13.1-8-13.1
				C588.2,220,586.4,221.4,586.4,233.1z"/>
			<path fill="#FF941F" d="M699.5,255.4h-65.2v-44.7h13.2v33.2h12.8v-33.2h13.1v33.2h12.9v-33.2h13.1V255.4z"/>
			<path fill="#FF941F" d="M754.6,255.4c-6.3-15.1-10.8-18.8-16.1-20.1v20.1h-13.2v-44.7h13.2v21.5c3.1-4,8.9-12.1,15.1-21.5h15.1
				c-7.5,11.6-13,18.7-15.1,20.5c4.3,1.7,8.2,5,16,24.2H754.6z"/>
			<path fill="#FF941F" d="M786.3,232.8c0-18.2,7.3-23.3,21.2-23.3c14.2,0,21.4,5.1,21.4,23.3c0,18.3-7.1,23.8-21.4,23.8
				C793.4,256.7,786.3,251.2,786.3,232.8z M799.5,233.1c0,11.3,1.8,13.1,8,13.1c6.2,0,8.1-1.8,8.1-13.1c0-11.7-1.8-13.1-8.1-13.1
				C801.3,220,799.5,221.4,799.5,233.1z"/>
			<path fill="#FF941F" d="M865.9,222.3c-0.8,11.4-3,23.7-5.8,33.2h-13.8c3.7-12.8,6.3-29.5,7.2-44.7h35.6v44.7H876v-33.2H865.9z"/>
			<path fill="#FF941F" d="M947.6,253.1c-5.9,2.2-14.4,3.5-20.8,3.5c-14.5,0-18.7-3.2-18.7-14.8c0-12.6,6.7-14.6,17.1-14.6
				c3.3,0,6.6,0.5,9.9,1.1c0-6.2-1.4-7.7-9.9-7.7c-5,0-9.9,0.7-13.6,1.8l-2.1-10.7c5-1.3,12.3-2.3,18.8-2.3
				c13.1,0,19.2,4.1,19.2,17.4V253.1z M935.1,237c-2-0.5-4.5-0.6-7.1-0.6c-4.7,0-6.4,0.5-6.4,5c0,4.6,1.1,5.3,6.3,5.3
				c2.5,0,5.2-0.4,7.3-1.2V237z"/>
		</g>
	</g>
	<g>
		<path fill-rule="evenodd" clip-rule="evenodd" fill="#4F8FFD" d="M66.8,127.1c1.8,3.2,5,4.6,8.7,6c7.3,2.9,5.4,4.1,8,6.5
			c3.3-1.2,4.9-4.9,7-6l1.7-1.6c6.2-4,15.6,2,20.1,5.7c18.4,15.1,31.7,39.8,32.1,65c10.5,6.4,24.7,6.2,35.2,0.2
			c0.5-19.6,7.9-37.6,19.4-51.7c5.7-7.1,21.2-24.4,31.8-19.8c4.3,1.8,5.7,7.1,9.9,8.3c0.5-0.5,0.2-0.2,0.7-0.9
			c0.3-0.4,0.5-0.7,0.7-1.2c0.6-1,0.9-1.3,1.7-2c4.6-3.7,4.6-0.4,13.5-8c0.2-4.6-2.3-16.7-4.1-21.8c-0.5-1.4-0.6-1.7-1.4-2.6
			c-14.4-0.9-39.8,1.7-53.6,5.4c-30.6,8.2-29,23.5-36.6,23.3c-8.1-0.2-6.2-18.2-48.3-25.8c-4.6-0.8-9.2-0.9-13.6-1.6
			c-6.4-1-21.3-1.9-28.4-1.2C70.4,107.6,65.5,122.4,66.8,127.1L66.8,127.1z"/>
		<path fill-rule="evenodd" clip-rule="evenodd" fill="#FF941F" d="M162.3,240.2c17,0,34.9-4.5,47.3-13c2.7-1.8,6.1-3.2,3.6-7.5
			c-3.6-6-5.3-9.1-7.8-16.6c-4.4-1.1-10.1,7-19,5.7c-5.7-0.8-2-6.3-9.1-1.7c-1.5,1-2.4,1.4-4.3,2.2c-3.8,1.4-6.2,2.1-10.7,2.1
			c-12.3,0.1-17.2-6.4-19-6.2c-1,0.1-5.1,8-18.3,0.1c-2.1-1.2-3.4-2.6-5.8-2.5c-1.2,1.9-2.5,6-3.7,8.4c-4.7,10.1-8.7,11.5-1.5,15.8
			C128.6,235.9,143.6,240.3,162.3,240.2L162.3,240.2z"/>
		<path fill-rule="evenodd" clip-rule="evenodd" fill="#FF941F" d="M80.9,101.2c4.6-9.5,39.1,1.3,46.7,3.8
			c9.3,3.1,20.5,10.3,26.8,17.5c11.7,13.4,5.2,7.3,22.7-6.9c14.1-11.5,37.4-17.1,55.4-17.9c6.3-0.3,7.4-0.5,10.9,3.6l3.4,0l0.3-11
			c-28.3-2.3-60.3,5.3-78,27.8c-1.8,2.2-4.5,7.4-7.2,8c-1.8-0.2-7.9-10.2-14.2-15.9C129,93.8,103,89,77.1,90.3
			C76.8,92.6,77,95,77,97.3C77,101.8,76.7,101.3,80.9,101.2L80.9,101.2z"/>
		<path fill-rule="evenodd" clip-rule="evenodd" fill="#4F8FFD" d="M207.4,201.4c0.2,3.2,6.2,15.9,7.9,18
			c5.3-0.2,20.4-18.5,23.6-22.7c4.6-5.8,14-23.6,15.2-31.6c-1.1,0.1-13.8,5.7-12-6.5c-4.5-2-3.3-2.9-4.7-5.8c-1.1,1.9-1.3,5.1-2,7.6
			c-0.9,3-1.6,4.6-2.6,7.3c-1.9,5-4,8.8-6.8,13.3C221.6,188.3,213.7,197.1,207.4,201.4L207.4,201.4z"/>
		<path fill-rule="evenodd" clip-rule="evenodd" fill="#4F8FFD" d="M82,158.8c1,9.4-5.4,7.6-11.6,6.8c0.9,9.1,10.5,25.3,15.1,31.8
			c3.7,5.2,19.1,22,23.3,22.3c1.6-2.6,7.7-15.3,7.8-18.3c-13-8.8-22.8-24.7-27.8-40.3c-0.7-2.1-1.5-6.4-2.3-7.9
			c-0.7,1.3-0.4,2.1-1.6,3.5C84,158,83.1,158,82,158.8L82,158.8z"/>
		<path fill-rule="evenodd" clip-rule="evenodd" fill="#FF941F" d="M86.9,88.5c6.9,0.5,2.3-2.2,12.5-0.9
			c22.5,2.9,45.6,12.9,58.8,32.4c3.6,5.3,4.1,5.3,7.3,0.5c2.8-4.1,6.4-8.3,9.8-11.5c5.5-5.1,9.8-7.8,16.6-11.6
			c5.1-2.8,14.1-6.3,20.3-7.6c27-5.6,15.9-0.5,24.9-1.5l0-5.9c-13.9-1.3-33.1,4.6-45.1,11.4c-7.8,4.3-21.7,15.4-26.8,23.1
			c-1.2,1.8-1.5,3.3-3.4,4.1c-1.1-0.8-3.7-5.1-6.1-7.9c-2.2-2.6-5.2-5.3-7.1-7.2c-15.3-14.4-39.8-24.7-61.6-23.5L86.9,88.5
			L86.9,88.5z"/>
		<path fill-rule="evenodd" clip-rule="evenodd" fill="#FF941F" d="M244.4,144.6c-1.4,2.2-3.9,2.7-4.6,6.3c-1,5.7,3.4,4.1,4.5,6
			c1,1.8-3,6.5,2.7,7.1c3.3,0.3,6.8-1.3,8.7-3.2c3.7-3.7,0.8-6.5,1.6-9.2c0.5-1.5,1.3-2,1.8-4.3c0.6-2.7,0.1-3.3-0.3-5.7
			c-0.7-3.7,2.6-4.9,1.3-10.1c-1.3-5.2-4.5-0.4-6.9,1c-3,1.6-9.2,3-10.2,7.5C242.2,143.1,243.5,142.7,244.4,144.6L244.4,144.6z"/>
		<path fill-rule="evenodd" clip-rule="evenodd" fill="#FF941F" d="M84,154.4c0.8-7.6-2.4-6-4.4-9.8c0.7-1.8,1.3-1,1.5-2.9
			c0.8-5.8-8.4-7.9-11.1-9.6c-2.3-1.5-2.5-3.2-5-3c-0.5,1.7-1.3,2.5-1.3,5.2c0.1,3.1,1.4,3.8,1.6,5.7c0.3,2-1,3.4-0.5,6.6
			c0.3,2.4,1.5,3.4,1.8,5.3c0.9,4.8-2.3,6.7,3.6,10.4c3.8,2.3,6.8,2.8,10-0.1c0.2-2.3-1.1-4.2-0.2-5.5c1.2-1.3,0.6-0.3,2.3-1
			C84.2,154.9,83,155.2,84,154.4L84,154.4z"/>
		<path fill-rule="evenodd" clip-rule="evenodd" fill="#FF941F" d="M312.3,93c-0.7-2.4-3.8-23.2-2.9-27.6c0.3-1.6,1.5-3.5,1.6-4.6
			c1-7.8-24.9,0.7-34.2,21.2c-6,13.3-2.9,28.9-4.5,45.5c-4.6,49.6-23.1,85.9-63.6,108.5l-16.3,8c0.4,3.1,9.9,12.6,11.8,14.4
			c3,2.7,12.2,10,15.8,11c2.2,0.6,14.5-7.8,16.8-9.5c9.3-7,21.8-16.8,31.4-22.1c10.8-5.9,21.3-15.6,25.9-27.9
			c1.1-2.9,2.8-7.7,1.5-11.5c-1.8-5-5.5-1.8-8.6-3.7c-0.5-3.3,1.8-6.1,3.6-8c7-7.5,9.5-9.8,13.5-22c2-6.1,3.3-12.3,4.1-19.3
			c2-18-5.7-14.5-6.9-16.5c-0.9-4.2,2.1-5.8,4-7.9c5.4-5.5,5.3-9,6.7-14.3C312.4,105,313.1,95.5,312.3,93z M201.2,245.9
			c0.1-0.1,0.2-0.2,0.3-0.3c0.1,0,0.2-0.2,0.3-0.2l16.3-9c5.1-3.1,10.7-6.9,15.1-10.8c8.4-7.5,17.3-17.6,24.1-28.3
			c12.1-19.3,18.9-35.1,21.3-58.2c0.5-5.1,1-20.6,2.5-23.7c3.7-0.3,4,6.9,4.2,9.8c0.8,16.5-1.8,32.8-8,47.6
			c-8.4,20.1-24.5,41.2-40.8,54.4C229.2,233.1,209.9,245.6,201.2,245.9z M267.7,224.8c-9.1,9.8-26.8,20.6-38.6,25.9
			c-2.6,1.2-16.5,6.8-18.5,6c0.4-1.5-0.2-0.4,1.7-1.2l7-2.7c15.9-6.9,26.5-13.2,39.4-25.2c4.3-4,10.4-11.9,13.7-11.7
			C272.9,220.1,269.6,222.7,267.7,224.8z M286.9,214.6c-2.1,3.6-6.9,10.9-11,11.4c0.3-4.1,8.3-12.5,4.6-17.4
			c-1.2-1.6-6.8-2.3-2.2-6.3c1.9-1.6,4.9-3.1,8-2.5C293.6,201.3,289,210.9,286.9,214.6z M276.1,199.6c-11.5,16.4-25,30.4-41.8,40.6
			c-5.8,3.5-21.1,11.3-28.5,11.8c3.2-2.6,9.6-4.5,13.9-6.7c32.6-16.1,46.7-38.5,62.9-69.6c1.3-2.4,2-5.4,4.7-5.4
			C289.7,177.6,279.4,194.8,276.1,199.6z M301.7,153.5c-1,4.8-4.5,14.6-9,15.3c-0.3-5,5.3-17.1,0.7-21.1c-2.2-1.9-7.4,0.4-4.2-6.6
			C292.3,134.7,306.8,130.1,301.7,153.5z M304.9,99.7c-0.5,5.3-3.9,16.9-9.7,16.4c-0.5-2.7,1.5-8,1.5-12.1
			c0.3-16.2-7.7-14.5-10.9-9.1c-1.3,2.2-2.7,7.5-5.6,7.5c-4.5-10.4,12-38.1,20.2-24.9C303.6,82.6,305.7,91.9,304.9,99.7z"/>
		<path fill-rule="evenodd" clip-rule="evenodd" fill="#FF941F" d="M113.9,235.2c-46.6-27-62.8-72-62.9-129.4c0-6.1,0.1-9.4-0.8-15
			C47.7,75.7,32.6,60.4,18,58.1c-8.7-1.4-3.6,4.7-3.3,8.9c0.4,5.9,2.4,15.7,1.6,22.3c-0.5,4.3-1.1,2.7-1.1,8.2
			c0,0-0.9,14.5,2.5,19.8c1.4,2.1,1.6,3.4,3.3,5c1.7,1.7,3.1,3.1,2.4,6.7c-1.6,2.5-7.5-2.2-7.5,12.3c0,13.6,5.7,32.8,14.5,42.2
			c1.9,2,8.1,7.3,6.7,11.2c-1.6,2-13.6-3.7-7.2,14.9c3.9,11.5,15,22.3,25.7,28c12.5,6.6,20.4,14.4,31.5,22c2.9,2,14.4,10.2,16.6,9.8
			c3.3-0.6,13.4-8.6,16-10.9c2.4-2.1,11.5-11.6,12-14.6C131.5,243.9,117,237,113.9,235.2z M19.2,100C18,92.7,21.3,69.3,32,74.8
			c7.8,4,15.4,21.6,11.5,27.4c-4.4-0.7-4-9.9-9.6-11c-6.1-1.2-6.9,7.7-6.7,13.2c0.1,3.6,0.8,5.7,1.7,8.6
			C30.7,119.5,21.8,116.5,19.2,100z M30.5,147.6c-4.3,7.2,1.2,14.3,0.8,21.2c-7.6-0.9-16.9-35.1-2.8-32.6c4.3,0.8,7.3,4.3,7,9.7
			C32.5,147.9,34.5,146.5,30.5,147.6z M38.5,200.1c4.3-0.2,8.8,1.4,8.8,6.2c-1.9,1.2-6.8,2-3.6,10c1,2.6,4.4,7.9,4.7,9.6
			C42.4,226.3,25.6,200.8,38.5,200.1z M51.5,216.3c2.9-0.8,5.4,3,7.4,5.1c13.2,14,27.7,24,45.4,31.3c2.3,1,6.8,2.4,8.6,3.7
			C98.7,256.7,50.3,227.2,51.5,216.3z M89.5,240c-16-9.9-31.5-25-41.5-40.4C44.3,194,35,179,36.5,170.4c2.9-0.5,3.9,3.2,4.9,5.4
			c2.8,6,7.5,13.9,10.8,19.8c11.2,19.9,31.4,40.8,52.4,49.9c3.6,1.6,11.1,4.4,13.7,6.5C111,251.7,95.8,243.9,89.5,240z M87.5,227
			c-17.7-14.1-38.5-42.3-44.6-65.1c-3-11.5-5.2-25.2-4.1-37.4c0.3-3.2,0.5-9.2,4.2-9.2c3.3,8.7-1.8,44.8,23.8,82.1
			c28.3,41.2,48.3,41.5,56,48.5C113.9,245.7,95,233,87.5,227z"/>
		<path fill-rule="evenodd" clip-rule="evenodd" fill="#FF941F" d="M234.3,135.3c-6,2.8-5,14.4,2.3,14.4c2.6,0,7.2-4.5,0.8-11.1
			c-0.5-0.5-0.8-0.8-1.3-1.5C234.8,135.6,235.8,136.4,234.3,135.3L234.3,135.3z"/>
		<path fill-rule="evenodd" clip-rule="evenodd" fill="#FF941F" d="M91.6,148.4c0.3-0.9,0.9-1.1,1.4-2.3c0.6-1.2,0.7-2.2,0.7-3.9
			c-0.1-4.1-1.7-4.1-2.1-6.1c-0.6-0.3-1.2-0.5-1.8-0.8c-1.4,1-0.4,0.3-1.5,1.6c-0.5,0.6-0.8,0.9-1.3,1.5c-1,1.1-1.8,1.7-2.4,2.7
			C83.7,142.5,81.2,152.4,91.6,148.4L91.6,148.4z"/>
		<path fill-rule="evenodd" clip-rule="evenodd" fill="#4F8FFD" d="M205.7,266.7c-5.9-4-11.1-10-15.3-15.6c-2.2-2.9-4-7.9-5.9-10.1
			c-3.5-0.1-6.4,1.3-10.4,1.6c-11.2,0.9-11.8,0.8-22.7,0.1c-14.4-0.9-9.5-5.9-14.9,3.8c-1.3,2.3-2.7,4.4-4.4,6.7
			c-3.7,4.9-6.1,7-10.6,11.1c-5.5,5-8.2,5.4-11.4,7.5c-1.9,1.3-0.8-0.2-1.3,1.6c5.6,2.2,12.8,3.7,19.3,5.3c3.1,0.7,7.1,1.7,10.2,2
			c12.5,1.2,6.9,1.8,10.4,2.5c2.9-3.6,5.6-13.5,6.8-15.1l12.7,0c1.2,0.3,0.8,0.5,1.9,3.7c2.3,6.4,2.1,4.8,4.4,9.6l0.9,1.9
			c4-0.9-3.3-0.8,9.6-2.7c7.2-1,20.8-4.1,27.8-6.4c2.2-0.7,1.1,0.1,2.2-1.3C214.6,272.3,207.3,267.8,205.7,266.7z M164.5,258l-4.5,0
			l-2.6-0.1l1.8-12l2.6-0.1l0.5-0.1l2.5,0.2l1.9,12L164.5,258z"/>
	</g>
	<circle fill-rule="evenodd" clip-rule="evenodd" fill="#FF941F" cx="161.5" cy="45" r="37.8"/>
</g>
</svg>
